<svg xmlns="http://www.w3.org/2000/svg" viewBox="0 0 256 256">
  <defs>
    <linearGradient id="bg" x1="0" y1="0" x2="1" y2="1">
      <stop offset="0" stop-color="#15243a"/>
      <stop offset="1" stop-color="#09111f"/>
    </linearGradient>
    <linearGradient id="screen" x1="0" y1="0" x2="1" y2="0">
      <stop offset="0" stop-color="#63e6be"/>
      <stop offset="1" stop-color="#38bdf8"/>
    </linearGradient>
  </defs>
  <rect width="256" height="256" rx="56" fill="url(#bg)"/>
  <path d="M58 112V76l70-48 70 48v36" fill="none" stroke="#63e6be" stroke-width="14" stroke-linecap="round" stroke-linejoin="round"/>
  <rect x="25" y="98" width="206" height="92" rx="30" fill="#0f1b2d" stroke="#e8fff8" stroke-width="8"/>
  <rect x="45" y="119" width="130" height="50" rx="12" fill="url(#screen)"/>
  <g fill="#09111f" opacity=".7">
    <rect x="59" y="132" width="12" height="12" rx="3"/>
    <rect x="78" y="132" width="12" height="12" rx="3"/>
    <rect x="97" y="132" width="12" height="12" rx="3"/>
    <rect x="116" y="132" width="12" height="12" rx="3"/>
    <rect x="135" y="132" width="26" height="12" rx="3"/>
    <rect x="59" y="151" width="45" height="7" rx="3"/>
    <rect x="111" y="151" width="50" height="7" rx="3"/>
  </g>
  <circle cx="202" cy="144" r="18" fill="#09111f" stroke="#e8fff8" stroke-width="7"/>
  <path d="M88 208h80" stroke="#63e6be" stroke-width="12" stroke-linecap="round"/>
</svg>
